<svg width="1258" height="1659" viewBox="0 0 1258 1659" fill="none" xmlns="http://www.w3.org/2000/svg">
<rect x="514" y="4.52075" width="733.213" height="1596.11" transform="rotate(-0.353256 514 4.52075)" fill="#6F986E"/>
<rect x="969.641" y="1208.81" width="178.562" height="147.388" fill="#EBEBEB" stroke="#C4C4C4"/>
<line x1="1110.09" y1="1268.07" x2="1063.75" y2="1333.05" stroke="#F5F5F5" stroke-width="4"/>
<line x1="1115.46" y1="1284.29" x2="1079.26" y2="1335.05" stroke="#F5F5F5" stroke-width="4"/>
<line x1="1121.74" y1="1299.25" x2="1094.22" y2="1337.83" stroke="#F5F5F5" stroke-width="4"/>
<rect x="622.986" y="1208.81" width="178.562" height="147.388" fill="#EBEBEB" stroke="#C4C4C4"/>
<line x1="763.431" y1="1268.07" x2="717.09" y2="1333.05" stroke="#F5F5F5" stroke-width="4"/>
<line x1="768.803" y1="1284.28" x2="732.599" y2="1335.04" stroke="#F5F5F5" stroke-width="4"/>
<line x1="775.078" y1="1299.25" x2="747.563" y2="1337.83" stroke="#F5F5F5" stroke-width="4"/>
<rect x="969.641" y="944.45" width="178.562" height="147.388" fill="#EBEBEB" stroke="#C4C4C4"/>
<line x1="1110.09" y1="1003.72" x2="1063.75" y2="1068.69" stroke="#F5F5F5" stroke-width="4"/>
<line x1="1115.46" y1="1019.93" x2="1079.26" y2="1070.69" stroke="#F5F5F5" stroke-width="4"/>
<line x1="1121.74" y1="1034.89" x2="1094.22" y2="1073.47" stroke="#F5F5F5" stroke-width="4"/>
<rect x="622.986" y="944.45" width="178.562" height="147.388" fill="#EBEBEB" stroke="#C4C4C4"/>
<line x1="763.431" y1="1003.72" x2="717.09" y2="1068.69" stroke="#F5F5F5" stroke-width="4"/>
<line x1="768.803" y1="1019.93" x2="732.599" y2="1070.69" stroke="#F5F5F5" stroke-width="4"/>
<line x1="775.078" y1="1034.89" x2="747.563" y2="1073.47" stroke="#F5F5F5" stroke-width="4"/>
<rect x="969.641" y="680.094" width="178.562" height="147.388" fill="#EBEBEB" stroke="#C4C4C4"/>
<line x1="1110.09" y1="739.363" x2="1063.75" y2="804.335" stroke="#F5F5F5" stroke-width="4"/>
<line x1="1115.46" y1="755.573" x2="1079.26" y2="806.333" stroke="#F5F5F5" stroke-width="4"/>
<line x1="1121.74" y1="770.537" x2="1094.22" y2="809.114" stroke="#F5F5F5" stroke-width="4"/>
<rect x="622.986" y="680.094" width="178.562" height="147.388" fill="#EBEBEB" stroke="#C4C4C4"/>
<line x1="763.431" y1="739.363" x2="717.09" y2="804.335" stroke="#F5F5F5" stroke-width="4"/>
<line x1="768.803" y1="755.573" x2="732.599" y2="806.333" stroke="#F5F5F5" stroke-width="4"/>
<line x1="775.078" y1="770.537" x2="747.563" y2="809.114" stroke="#F5F5F5" stroke-width="4"/>
<rect x="969.641" y="415.738" width="178.562" height="147.388" fill="#EBEBEB" stroke="#C4C4C4"/>
<line x1="1110.09" y1="475.007" x2="1063.75" y2="539.979" stroke="#F5F5F5" stroke-width="4"/>
<line x1="1115.46" y1="491.218" x2="1079.26" y2="541.977" stroke="#F5F5F5" stroke-width="4"/>
<line x1="1121.74" y1="506.181" x2="1094.22" y2="544.758" stroke="#F5F5F5" stroke-width="4"/>
<rect x="622.986" y="415.738" width="178.562" height="147.388" fill="#EBEBEB" stroke="#C4C4C4"/>
<line x1="763.431" y1="475.007" x2="717.09" y2="539.979" stroke="#F5F5F5" stroke-width="4"/>
<line x1="768.803" y1="491.218" x2="732.599" y2="541.977" stroke="#F5F5F5" stroke-width="4"/>
<line x1="775.078" y1="506.181" x2="747.563" y2="544.758" stroke="#F5F5F5" stroke-width="4"/>
<rect x="969.641" y="151.383" width="178.562" height="147.388" fill="#EBEBEB" stroke="#C4C4C4"/>
<line x1="1110.09" y1="210.651" x2="1063.75" y2="275.624" stroke="#F5F5F5" stroke-width="4"/>
<line x1="1115.46" y1="226.862" x2="1079.26" y2="277.622" stroke="#F5F5F5" stroke-width="4"/>
<line x1="1121.74" y1="241.825" x2="1094.22" y2="280.403" stroke="#F5F5F5" stroke-width="4"/>
<rect x="622.986" y="151.382" width="178.562" height="147.388" fill="#EBEBEB" stroke="#C4C4C4"/>
<line x1="763.431" y1="210.651" x2="717.09" y2="275.624" stroke="#F5F5F5" stroke-width="4"/>
<line x1="768.803" y1="226.862" x2="732.599" y2="277.622" stroke="#F5F5F5" stroke-width="4"/>
<line x1="775.078" y1="241.825" x2="747.563" y2="280.403" stroke="#F5F5F5" stroke-width="4"/>
<rect x="825.494" y="1477.4" width="120.202" height="120.202" fill="#E4FDE1" stroke="white" stroke-width="2"/>
<rect y="321.625" width="588" height="1280" transform="rotate(-0.353256 0 321.625)" fill="#7DB87B"/>
<rect x="365.5" y="1287.5" width="143" height="118" fill="#EBEBEB" stroke="#C4C4C4"/>
<line x1="478.354" y1="1335.16" x2="441.191" y2="1387.27" stroke="#F5F5F5" stroke-width="4"/>
<line x1="482.662" y1="1348.16" x2="453.629" y2="1388.87" stroke="#F5F5F5" stroke-width="4"/>
<line x1="487.694" y1="1360.16" x2="465.628" y2="1391.1" stroke="#F5F5F5" stroke-width="4"/>
<rect x="87.5" y="1287.5" width="143" height="118" fill="#EBEBEB" stroke="#C4C4C4"/>
<line x1="200.354" y1="1335.16" x2="163.191" y2="1387.27" stroke="#F5F5F5" stroke-width="4"/>
<line x1="204.662" y1="1348.16" x2="175.629" y2="1388.87" stroke="#F5F5F5" stroke-width="4"/>
<line x1="209.694" y1="1360.16" x2="187.628" y2="1391.1" stroke="#F5F5F5" stroke-width="4"/>
<rect x="365.5" y="1075.5" width="143" height="118" fill="#EBEBEB" stroke="#C4C4C4"/>
<line x1="478.354" y1="1123.16" x2="441.191" y2="1175.27" stroke="#F5F5F5" stroke-width="4"/>
<line x1="482.662" y1="1136.16" x2="453.629" y2="1176.87" stroke="#F5F5F5" stroke-width="4"/>
<line x1="487.694" y1="1148.16" x2="465.628" y2="1179.1" stroke="#F5F5F5" stroke-width="4"/>
<rect x="87.5" y="1075.5" width="143" height="118" fill="#EBEBEB" stroke="#C4C4C4"/>
<line x1="200.354" y1="1123.16" x2="163.191" y2="1175.27" stroke="#F5F5F5" stroke-width="4"/>
<line x1="204.662" y1="1136.16" x2="175.629" y2="1176.87" stroke="#F5F5F5" stroke-width="4"/>
<line x1="209.694" y1="1148.16" x2="187.628" y2="1179.1" stroke="#F5F5F5" stroke-width="4"/>
<rect x="365.5" y="863.5" width="143" height="118" fill="#EBEBEB" stroke="#C4C4C4"/>
<line x1="478.354" y1="911.161" x2="441.191" y2="963.266" stroke="#F5F5F5" stroke-width="4"/>
<line x1="482.662" y1="924.161" x2="453.629" y2="964.868" stroke="#F5F5F5" stroke-width="4"/>
<line x1="487.694" y1="936.161" x2="465.628" y2="967.099" stroke="#F5F5F5" stroke-width="4"/>
<rect x="87.5" y="863.5" width="143" height="118" fill="#EBEBEB" stroke="#C4C4C4"/>
<line x1="200.354" y1="911.161" x2="163.191" y2="963.266" stroke="#F5F5F5" stroke-width="4"/>
<line x1="204.662" y1="924.161" x2="175.629" y2="964.868" stroke="#F5F5F5" stroke-width="4"/>
<line x1="209.694" y1="936.161" x2="187.628" y2="967.099" stroke="#F5F5F5" stroke-width="4"/>
<rect x="365.5" y="651.5" width="143" height="118" fill="#EBEBEB" stroke="#C4C4C4"/>
<line x1="478.354" y1="699.161" x2="441.191" y2="751.266" stroke="#F5F5F5" stroke-width="4"/>
<line x1="482.662" y1="712.161" x2="453.629" y2="752.868" stroke="#F5F5F5" stroke-width="4"/>
<line x1="487.694" y1="724.161" x2="465.628" y2="755.099" stroke="#F5F5F5" stroke-width="4"/>
<rect x="87.5" y="651.5" width="143" height="118" fill="#EBEBEB" stroke="#C4C4C4"/>
<line x1="200.354" y1="699.161" x2="163.191" y2="751.266" stroke="#F5F5F5" stroke-width="4"/>
<line x1="204.662" y1="712.161" x2="175.629" y2="752.868" stroke="#F5F5F5" stroke-width="4"/>
<line x1="209.694" y1="724.161" x2="187.628" y2="755.099" stroke="#F5F5F5" stroke-width="4"/>
<rect x="365.5" y="439.5" width="143" height="118" fill="#EBEBEB" stroke="#C4C4C4"/>
<line x1="478.354" y1="487.161" x2="441.191" y2="539.266" stroke="#F5F5F5" stroke-width="4"/>
<line x1="482.662" y1="500.161" x2="453.629" y2="540.868" stroke="#F5F5F5" stroke-width="4"/>
<line x1="487.694" y1="512.161" x2="465.628" y2="543.099" stroke="#F5F5F5" stroke-width="4"/>
<rect x="87.5" y="439.5" width="143" height="118" fill="#EBEBEB" stroke="#C4C4C4"/>
<line x1="200.354" y1="487.161" x2="163.191" y2="539.266" stroke="#F5F5F5" stroke-width="4"/>
<line x1="204.662" y1="500.161" x2="175.629" y2="540.868" stroke="#F5F5F5" stroke-width="4"/>
<line x1="209.694" y1="512.161" x2="187.628" y2="543.099" stroke="#F5F5F5" stroke-width="4"/>
<rect x="250" y="1503" width="96" height="96" fill="#E4FDE1" stroke="white" stroke-width="2"/>
<rect x="400" y="708.69" width="436.373" height="949.929" transform="rotate(-0.353256 400 708.69)" fill="#8ACB88"/>
<rect x="671.378" y="1425.63" width="105.867" height="87.3137" fill="#EBEBEB" stroke="#C4C4C4"/>
<line x1="755.422" y1="1461.17" x2="727.842" y2="1499.84" stroke="#F5F5F5" stroke-width="4"/>
<line x1="758.619" y1="1470.82" x2="737.073" y2="1501.02" stroke="#F5F5F5" stroke-width="4"/>
<line x1="762.354" y1="1479.72" x2="745.978" y2="1502.68" stroke="#F5F5F5" stroke-width="4"/>
<rect x="465.065" y="1425.63" width="105.867" height="87.3137" fill="#EBEBEB" stroke="#C4C4C4"/>
<line x1="549.109" y1="1461.17" x2="521.529" y2="1499.84" stroke="#F5F5F5" stroke-width="4"/>
<line x1="552.306" y1="1470.81" x2="530.759" y2="1501.02" stroke="#F5F5F5" stroke-width="4"/>
<line x1="556.04" y1="1479.72" x2="539.665" y2="1502.68" stroke="#F5F5F5" stroke-width="4"/>
<rect x="671.378" y="1268.29" width="105.867" height="87.3137" fill="#EBEBEB" stroke="#C4C4C4"/>
<line x1="755.422" y1="1303.84" x2="727.842" y2="1342.5" stroke="#F5F5F5" stroke-width="4"/>
<line x1="758.619" y1="1313.48" x2="737.073" y2="1343.69" stroke="#F5F5F5" stroke-width="4"/>
<line x1="762.354" y1="1322.39" x2="745.978" y2="1345.35" stroke="#F5F5F5" stroke-width="4"/>
<rect x="465.065" y="1268.29" width="105.867" height="87.3137" fill="#EBEBEB" stroke="#C4C4C4"/>
<line x1="549.109" y1="1303.84" x2="521.529" y2="1342.5" stroke="#F5F5F5" stroke-width="4"/>
<line x1="552.306" y1="1313.48" x2="530.759" y2="1343.69" stroke="#F5F5F5" stroke-width="4"/>
<line x1="556.04" y1="1322.39" x2="539.665" y2="1345.35" stroke="#F5F5F5" stroke-width="4"/>
<rect x="671.378" y="1110.96" width="105.867" height="87.3137" fill="#EBEBEB" stroke="#C4C4C4"/>
<line x1="755.422" y1="1146.5" x2="727.842" y2="1185.17" stroke="#F5F5F5" stroke-width="4"/>
<line x1="758.619" y1="1156.15" x2="737.073" y2="1186.36" stroke="#F5F5F5" stroke-width="4"/>
<line x1="762.354" y1="1165.06" x2="745.978" y2="1188.02" stroke="#F5F5F5" stroke-width="4"/>
<rect x="465.065" y="1110.96" width="105.867" height="87.3137" fill="#EBEBEB" stroke="#C4C4C4"/>
<line x1="549.109" y1="1146.5" x2="521.529" y2="1185.17" stroke="#F5F5F5" stroke-width="4"/>
<line x1="552.306" y1="1156.15" x2="530.759" y2="1186.36" stroke="#F5F5F5" stroke-width="4"/>
<line x1="556.04" y1="1165.06" x2="539.665" y2="1188.02" stroke="#F5F5F5" stroke-width="4"/>
<rect x="671.378" y="953.63" width="105.867" height="87.3137" fill="#EBEBEB" stroke="#C4C4C4"/>
<line x1="755.422" y1="989.171" x2="727.842" y2="1027.84" stroke="#F5F5F5" stroke-width="4"/>
<line x1="758.619" y1="998.819" x2="737.073" y2="1029.03" stroke="#F5F5F5" stroke-width="4"/>
<line x1="762.354" y1="1007.72" x2="745.978" y2="1030.68" stroke="#F5F5F5" stroke-width="4"/>
<rect x="465.065" y="953.63" width="105.867" height="87.3137" fill="#EBEBEB" stroke="#C4C4C4"/>
<line x1="549.109" y1="989.171" x2="521.529" y2="1027.84" stroke="#F5F5F5" stroke-width="4"/>
<line x1="552.306" y1="998.819" x2="530.759" y2="1029.03" stroke="#F5F5F5" stroke-width="4"/>
<line x1="556.04" y1="1007.72" x2="539.665" y2="1030.68" stroke="#F5F5F5" stroke-width="4"/>
<rect x="671.378" y="796.298" width="105.867" height="87.3137" fill="#EBEBEB" stroke="#C4C4C4"/>
<line x1="755.422" y1="831.839" x2="727.842" y2="870.508" stroke="#F5F5F5" stroke-width="4"/>
<line x1="758.619" y1="841.487" x2="737.073" y2="871.697" stroke="#F5F5F5" stroke-width="4"/>
<line x1="762.354" y1="850.393" x2="745.978" y2="873.352" stroke="#F5F5F5" stroke-width="4"/>
<rect x="465.065" y="796.298" width="105.867" height="87.3137" fill="#EBEBEB" stroke="#C4C4C4"/>
<line x1="549.109" y1="831.84" x2="521.529" y2="870.508" stroke="#F5F5F5" stroke-width="4"/>
<line x1="552.306" y1="841.487" x2="530.759" y2="871.697" stroke="#F5F5F5" stroke-width="4"/>
<line x1="556.04" y1="850.393" x2="539.665" y2="873.352" stroke="#F5F5F5" stroke-width="4"/>
<rect x="585.791" y="1585.68" width="70.7289" height="70.7289" fill="#E4FDE1" stroke="white" stroke-width="2"/>
</svg>
