<svg width="4189" height="1286" viewBox="0 0 4189 1286" fill="none" xmlns="http://www.w3.org/2000/svg">
<path d="M3798.69 982.773C3798.69 1149.82 3658.57 1285.27 3485.69 1285.27C3312.81 1285.27 3172.69 1149.82 3172.69 982.773C3172.69 815.723 3312.81 680.273 3485.69 680.273C3658.57 680.273 3798.69 815.723 3798.69 982.773Z" fill="#6F986E" stroke="white"/>
<path d="M3366.36 997.864C3337.53 1012.95 3247.35 1002.49 3227.99 984.005C3214.69 971.31 3207.79 923.231 3234.19 880.273C3259.37 839.29 3279.19 830.227 3297.69 831.274C3338.99 833.609 3391.15 913.889 3395.69 943.274C3400.82 976.514 3384.69 988.274 3366.36 997.864Z" stroke="white" stroke-width="20"/>
<path d="M3458.84 1092.18C3469.73 1122.84 3446.75 1210.67 3425.73 1227.25C3411.3 1238.63 3362.73 1238.73 3323.89 1206.57C3286.84 1175.89 3280.64 1155.01 3284.27 1136.84C3292.37 1096.27 3379.17 1055.87 3408.9 1055.49C3442.53 1055.07 3451.91 1072.69 3458.84 1092.18Z" stroke="white" stroke-width="20"/>
<path d="M3582.63 1036.22C3614.88 1031.93 3696.02 1072.67 3707.87 1096.67C3716.01 1113.15 3706.01 1160.68 3666.48 1191.99C3628.77 1221.86 3607.05 1223.58 3590.03 1216.25C3552.03 1199.9 3530.55 1106.6 3536.36 1077.44C3542.93 1044.46 3562.12 1038.94 3582.63 1036.22Z" stroke="white" stroke-width="20"/>
<path d="M3574.56 913.155C3581.59 881.39 3647.69 819.151 3674.3 816.253C3692.57 814.262 3733.79 839.959 3749.64 887.825C3764.76 933.491 3758.93 954.483 3746.21 967.959C3717.81 998.043 3622.81 986.218 3597.41 970.758C3568.68 953.269 3570.08 933.354 3574.56 913.155Z" stroke="white" stroke-width="20"/>
<path d="M3444.35 886.543C3415.42 871.648 3372.07 791.882 3376.04 765.411C3378.77 747.23 3414.12 713.917 3464.44 710.782C3512.45 707.79 3531.27 718.778 3541.06 734.509C3562.92 769.629 3527.29 858.49 3505.87 879.112C3481.64 902.439 3462.74 896.015 3444.35 886.543Z" stroke="white" stroke-width="20"/>
<circle cx="3485.69" cy="982.273" r="40.5" fill="white" stroke="#8ACB88" stroke-width="20"/>
<path d="M1204.69 966.773C1204.69 1133.82 1064.57 1269.27 891.689 1269.27C718.808 1269.27 578.689 1133.82 578.689 966.773C578.689 799.723 718.808 664.273 891.689 664.273C1064.57 664.273 1204.69 799.723 1204.69 966.773Z" fill="#6F986E" stroke="white"/>
<path d="M772.357 981.864C743.529 996.945 653.345 986.49 633.986 968.005C620.689 955.31 613.79 907.231 640.189 864.273C665.375 823.29 685.189 814.227 703.689 815.274C744.99 817.609 797.152 897.889 801.689 927.274C806.821 960.514 790.689 972.274 772.357 981.864Z" stroke="white" stroke-width="20"/>
<path d="M864.839 1076.18C875.733 1106.84 852.747 1194.67 831.732 1211.25C817.299 1222.63 768.728 1222.73 729.892 1190.57C692.841 1159.89 686.644 1139.01 690.271 1120.84C698.37 1080.27 785.166 1039.87 814.896 1039.49C848.528 1039.07 857.911 1056.69 864.839 1076.18Z" stroke="white" stroke-width="20"/>
<path d="M988.629 1020.22C1020.88 1015.93 1102.02 1056.67 1113.87 1080.67C1122.01 1097.15 1112.01 1144.68 1072.48 1175.99C1034.77 1205.86 1013.05 1207.58 996.031 1200.25C958.033 1183.9 936.55 1090.6 942.361 1061.44C948.934 1028.46 968.12 1022.94 988.629 1020.22Z" stroke="white" stroke-width="20"/>
<path d="M980.555 897.155C987.593 865.39 1053.69 803.151 1080.3 800.253C1098.57 798.262 1139.79 823.959 1155.64 871.825C1170.76 917.491 1164.93 938.483 1152.21 951.959C1123.81 982.043 1028.81 970.218 1003.41 954.758C974.682 937.269 976.08 917.354 980.555 897.155Z" stroke="white" stroke-width="20"/>
<path d="M850.348 870.543C821.423 855.648 778.069 775.882 782.043 749.411C784.773 731.23 820.12 697.917 870.443 694.782C918.454 691.79 937.268 702.778 947.06 718.509C968.921 753.629 933.291 842.49 911.873 863.112C887.643 886.439 868.742 880.015 850.348 870.543Z" stroke="white" stroke-width="20"/>
<circle cx="891.689" cy="966.273" r="40.5" fill="white" stroke="#8ACB88" stroke-width="20"/>
<path d="M57.7119 1043.03C94.1761 1088.36 178.423 1122.57 503.163 1144.88C557.626 925.101 627.763 862.124 744.414 800.004C861.065 737.883 1056.96 801.178 1095.25 821.65C1156.18 854.231 1238.11 955.186 1250.39 1047.52C1260.05 1120.21 1267.33 1187.8 1267.59 1206.3L3116.36 1213.21C3114.78 1098.73 3205.68 874.446 3288.99 824.288C3372.31 774.13 3434.3 736.92 3630.69 800.056C3870.78 877.241 3780.48 1181.52 3795.29 1203.82C3822.13 1244.22 4109 1180.47 4132.56 1148.14C4156.11 1115.81 4183.62 935.916 4177.43 885.497C4171.23 835.078 4084.62 683.17 3944.54 642.197C3267.03 430.054 3086.23 531.525 2936.57 435.128C2786.92 338.731 2731.44 245.949 2334.84 97.4243C1409.51 -28.7805 1199.4 73.6369 1084.83 105.226C998.639 128.989 683.301 242.779 568.424 324.71C385.991 338.42 113.579 354.376 100.113 385.381C88.7427 411.56 110.776 541.546 111.526 595.744C112.211 645.239 112.893 658.398 104.14 676.354C89.7202 682.221 38.6127 703.664 17.8673 765.557C-2.87805 827.45 24.2092 970.822 57.7119 1043.03Z" fill="#8ACB88" stroke="white" stroke-width="20"/>
<path d="M3047.22 1095.16C3036.81 1149.64 2808.74 1098.46 1988.82 1109.81L2004.71 848.565L1982.27 636.356L1950.49 363.769L1883.71 91.1675C1979.67 99.3402 2207.44 106.355 2334.47 142.434C2490.59 186.777 2573.7 266.134 2648.86 313.599C2707.47 350.608 3000.83 525.747 3050.24 627.073L3043.79 847.684L3047.22 1095.16Z" stroke="white" stroke-width="20"/>
<path d="M1966.51 473.558L2942.17 514.058" stroke="white" stroke-width="20"/>
<path d="M1890.71 91.0706C1707.61 84.6045 1445.86 68.7255 1345.42 110.119C1312.39 144.08 1127.23 422.669 1116.99 441.813C1111.44 452.199 1090.96 475.676 1069.26 533.482C1046.78 593.344 1040.47 621.389 1063.33 647.075C1086.19 672.761 1201.38 794.678 1244.27 858.091C1292.78 929.837 1333.64 1101.51 1365.17 1102.94C1661.38 1116.34 1668.35 1113.75 1995.81 1109.21" stroke="white" stroke-width="20"/>
<line x1="1109.5" y1="448.426" x2="1966.92" y2="472.561" stroke="white" stroke-width="20"/>
<path d="M1354.38 106.995C1033.22 205.95 1040.21 204.853 975.794 247.748C957.407 259.993 901.004 319.615 995.033 409.498C1024.42 437.593 1083.4 435.277 1117.95 438.799" stroke="white" stroke-width="20"/>
<path d="M3887.23 692.495L4029.6 682.024C4034.97 684.783 4062.1 710.777 4127.64 792.677C4095.54 797.622 4022.5 804.934 3987.15 794.622C3942.97 781.732 3951.74 765.109 3887.23 692.495Z" fill="#D9D9D9" stroke="white" stroke-width="20"/>
<path d="M108.57 418.268C148.29 445.887 227.409 506.931 226.13 530.151C225.688 538.179 226.75 547.065 228.201 556.625C231.999 581.63 238.467 611.243 227.68 642.14C215.752 676.309 145.384 657.448 111.691 643.746L110.508 558.254L108.57 418.268Z" fill="#D84747"/>
<path d="M110.508 558.254L108.57 418.268C148.29 445.887 227.409 506.931 226.13 530.151C225.688 538.179 226.75 547.065 228.201 556.625M110.508 558.254L111.691 643.746C145.384 657.448 215.752 676.309 227.68 642.14C238.467 611.243 231.999 581.63 228.201 556.625M110.508 558.254L228.201 556.625" stroke="white" stroke-width="20"/>
</svg>
