<?xml version="1.0" encoding="UTF-8"?><svg id="a" xmlns="http://www.w3.org/2000/svg" viewBox="0 0 1283.34 818.5"><defs><style>.b{fill:#224f9c;}.b,.c,.d{fill-rule:evenodd;}.c{fill:#f3b61d;}.d{fill:#cac8c8;}</style></defs><path class="d" d="M365.49,576.55l-32.39,185.22h471.26l42.9-244.94h53.35l-52.84,301.67H266.83l42.33-241.95h56.33Zm-8.59-239.04L415.93,0h477.22l84.93,107.52-30.3,173.26h-53.41l18.89-107.52h-115.66l20.45-116.53H462.33l-49.17,280.78h-56.26ZM863.87,116.46h59.31l-48.87-59.73-10.44,59.73h0Z"/><path class="c" d="M1277.78,372.6c-6.16-12.71-16.86-19.06-32.06-19.06-8.19,0-15.29,1.63-21.24,5.07-5.89,3.38-12.03,9.33-18.59,17.52,2.04-8.19,3.53-15.42,4.67-21.71l13.12-74.87h-55.91l-37.41,213.54h57.16l1.35-11.44c0-.75,.07-1.66,.21-2.82,.12-1.15,.26-2.5,.45-4.12,1.97,4.12,4.07,7.46,6.23,10.14,2.16,2.7,4.4,4.87,6.63,6.42,4.59,3.05,10.47,4.63,17.85,4.63,15.15,0,28.06-6.17,38.81-18.48,10.75-12.24,18.06-29.34,21.92-51.34,3.98-23.04,2.96-40.82-3.19-53.48Zm-54.41,52.33c-3.25,18.2-9.4,27.32-18.59,27.32-8.66,0-11.29-9.69-7.91-29.03,3.25-18.37,9.07-27.58,17.38-27.58,9.47,0,12.5,9.75,9.12,29.29h0Z"/><path class="b" d="M165.97,362.99c3.86-22.12-1.42-39.09-15.89-51.12-11.36-9.33-30.16-14-56.4-14H34.16L0,493.07H57.82l11.97-68.27,1.81-12.85c.54,2.62,1.01,5,1.35,6.87,.4,2.01,.61,3.54,.68,4.7l16.57,69.57h62.8l-28.96-81.14c23.81-9.07,37.81-25.36,41.93-48.96Zm-57.91,.61c-1.21,7.17-4.46,13.05-9.74,17.71-5.28,4.6-11.29,6.91-17.99,6.91h-3.86l8.1-46.47h2.13c16.83,0,23.93,7.24,21.36,21.85h0Z"/><path class="b" d="M306.52,373.47c-9.93-13.25-25.22-19.88-45.84-19.88s-38.88,6.89-54.37,20.62c-15.5,13.66-25.09,31.32-28.95,53.03-3.72,21.29-.53,38.07,9.47,50.44,10.15,12.1,25.97,18.22,47.54,18.22,18.26,0,33.69-4,46.4-12.14,12.72-8.05,22.38-19.99,29.08-35.89l-54.45-1.07c-3.11,6.4-7.79,9.57-14.14,9.57-8.05,0-11.22-6.94-9.4-20.96h81.97l1.82-8.99c3.86-21.98,.81-39.62-9.13-52.95h0Zm-43.15,34.62h-26.04c.88-5.05,2.77-9.17,5.8-12.43,2.99-3.24,6.44-4.86,10.3-4.86,1.89,0,3.51,.41,4.93,1.35,1.42,.88,2.57,2.09,3.52,3.58,.88,1.49,1.49,3.39,1.76,5.42,.26,2.16,.19,4.45-.27,6.94Z"/><path class="b" d="M471.26,373.21c-6.83-13.12-17.52-19.76-31.99-19.76-3.93,0-7.51,.47-10.89,1.22-3.32,.81-6.56,2.09-9.68,3.86-3.11,1.81-6.09,4.12-9,6.89-2.91,2.84-5.88,6.3-8.93,10.28l4.69-19.27h-55.93l-34.56,197.6h55.92l9.97-56.87c.75-4.54,1.28-8.4,1.56-11.56,.47-3.12,.8-6.77,1.14-11.1,7.64,14.25,18.2,21.38,31.79,21.38,14.88,0,27.66-6.39,38.34-19.15,10.87-12.71,18.18-29.93,22.04-51.8,3.72-21.5,2.23-38.74-4.47-51.72h0Zm-53.16,50.24c-1.63,9.4-4.12,16.77-7.43,21.95-3.37,5.21-7.1,7.87-11.28,7.87-8.4,0-10.89-9.83-7.45-29.37,3.38-19.12,9.33-28.72,17.99-28.72,4.2,0,7.03,2.51,8.38,7.44,1.42,4.93,1.35,11.81-.21,20.83h0Z"/><path class="b" d="M623.33,373.17c-10.28-13.12-26.38-19.68-48.42-19.68s-38.81,6.63-53.75,19.75c-15.08,13.02-24.41,30.4-28.21,51.94-3.77,21.64-.6,38.79,9.61,51.57,10.36,12.76,26.09,19.15,47.26,19.15s39.91-6.24,54.92-18.77c15.01-12.43,24.32-29.19,27.99-50.31,4-22.71,.88-40.7-9.4-53.65h0Zm-44.56,51.99c-1.56,9.11-4.4,17.02-8.54,23.65-4.05,6-8.37,8.98-12.91,8.98-4.8,0-8.12-2.99-9.94-9.1-1.95-5.47-2.01-13.45-.14-23.88,1.82-10.61,4.66-18.59,8.45-23.87,4-6.08,8.33-9.12,13.06-9.12,2.44,0,4.46,.81,6.09,2.42,1.7,1.56,2.99,3.86,3.86,6.77,.88,2.91,1.35,6.42,1.42,10.49,0,4.03-.4,8.66-1.35,13.66h0Z"/><path class="b" d="M698.67,493.09h-55.9l23.92-136.66h55.92l-7.63,26.64c11.96-19.94,27.73-29.97,47.21-29.97l-9.94,56.9c-5.59-3.06-10.54-4.55-14.8-4.55-7.51,0-13.73,2.49-18.59,7.37-4.93,4.93-8.28,12.1-9.87,21.57l-10.32,58.69h0Z"/><polygon class="b" points="817.41 493.09 761.43 493.09 778.2 397.2 762.31 397.2 769.41 356.43 785.3 356.43 792.33 316.2 848.38 316.2 841.35 356.43 859.89 356.43 852.71 397.2 834.19 397.2 817.41 493.09"/><polygon class="c" points="954.9 493.09 853.13 493.09 887.3 297.87 945.43 297.87 919.46 446.16 963.07 446.16 954.9 493.09"/><path class="c" d="M1071.56,356.43l-.67,6.01-.81,7.98c-.07,.81-.21,1.9-.3,3.12-.1,1.35-.24,2.77-.38,4.53-6.3-16.43-16.98-24.55-31.92-24.55s-27.27,6.31-37.88,18.94c-10.68,12.43-17.92,29.55-21.71,51.31-3.91,22.53-2.91,40.2,3.05,52.91,6.02,12.76,16.1,19.22,30.22,19.22,16.29,0,30.72-8.66,43.35-25.87-.69,2.58-1.56,5.89-2.51,10.01-1,4.14-2.16,8.46-3.44,13.05h56.05l23.96-136.66h-57.01Zm-9.6,53.69c-.28,3.54-.75,7.87-1.7,12.91-3.58,20.64-9.82,31.01-18.66,31.01s-11.22-8.21-8.38-24.55c3.98-22.89,10.75-34.24,20.22-34.24,2.16,0,3.86,.46,5.14,1.41,1.35,.96,2.3,2.57,2.84,4.8s.68,5.14,.54,8.66h0Z"/></svg>